<svg width="180" height="180" viewBox="0 0 180 180" fill="none" xmlns="http://www.w3.org/2000/svg">
<rect width="180" height="180" fill="white"/>
<path d="M121.5 64.5C121.5 82.1731 107.173 96.5 89.5 96.5C71.8269 96.5 57.5 82.1731 57.5 64.5C57.5 47.4065 70.9026 33.4433 87.7724 32.5458C90.5551 33.974 93.0937 35.2582 95.4376 36.4438C99.1147 38.3038 102.313 39.9215 105.222 41.4724C110.297 44.1781 113.651 46.2535 115.991 48.2613C118.165 50.1263 119.372 51.8583 120.15 53.9689C120.995 56.2603 121.5 59.4536 121.5 64.5Z" fill="white" stroke="black" stroke-width="15"/>
<path d="M134 144C134 164.435 139.706 180 90 180C40.2944 180 86 165.5 39 142.5C39 122.065 40.2944 104 90 104C144 105.5 134 123.565 134 144Z" fill="black"/>
</svg>
